<?xml version="1.0" encoding="iso-8859-1"?>
<!-- Generator: Adobe Illustrator 22.1.0, SVG Export Plug-In . SVG Version: 6.00 Build 0)  -->
<svg version="1.1" id="Layer_1" xmlns="http://www.w3.org/2000/svg" xmlns:xlink="http://www.w3.org/1999/xlink" x="0px" y="0px"
	 viewBox="0 0 48 48" style="enable-background:new 0 0 48 48;" xml:space="preserve">
<path d="M31.5,5h-15C10.159,5,5,10.159,5,16.5v15C5,37.841,10.159,43,16.5,43h15C37.841,43,43,37.841,43,31.5v-15
	C43,10.159,37.841,5,31.5,5z M24,34c-5.514,0-10-4.486-10-10s4.486-10,10-10s10,4.486,10,10S29.514,34,24,34z M34,16
	c-1.105,0-2-0.896-2-2c0-1.105,0.895-2,2-2s2,0.895,2,2C36,15.104,35.105,16,34,16z"/>
<circle cx="24" cy="24" r="7"/>
</svg>